<?xml version="1.0" standalone="no"?>
<!DOCTYPE svg PUBLIC "-//W3C//DTD SVG 20010904//EN"
 "http://www.w3.org/TR/2001/REC-SVG-20010904/DTD/svg10.dtd">
<svg version="1.0" xmlns="http://www.w3.org/2000/svg"
 width="1920.000000pt" height="1080.000000pt" viewBox="0 0 1920.000000 1080.000000"
 preserveAspectRatio="xMidYMid meet">

<g transform="translate(0.000000,1080.000000) scale(0.100000,-0.100000)"
fill="#000000" stroke="none">
<path d="M0 5400 l0 -5400 9600 0 9600 0 0 5400 0 5400 -9600 0 -9600 0 0
-5400z m6430 1596 l0 -213 -134 -5 c-122 -4 -137 -7 -178 -31 -33 -19 -52 -40
-69 -74 -23 -47 -24 -54 -30 -453 -6 -432 -10 -464 -62 -569 -31 -64 -113
-140 -190 -178 -36 -18 -70 -33 -76 -33 -6 0 -11 -10 -11 -22 0 -19 16 -30 79
-60 125 -59 198 -147 237 -284 15 -49 18 -124 23 -464 6 -399 6 -406 29 -453
17 -34 37 -55 70 -75 44 -25 56 -27 180 -30 l132 -4 0 -220 0 -220 -212 4
c-241 5 -318 19 -435 74 -143 68 -238 188 -285 361 -19 72 -21 112 -27 538 -6
450 -7 461 -28 502 -41 77 -99 102 -255 110 l-108 6 0 212 0 212 121 6 c145 8
200 31 240 100 l24 42 6 465 c6 426 9 471 27 542 47 175 138 289 284 358 120
56 197 68 441 69 l207 1 0 -214z m6166 41 c87 -24 143 -51 213 -102 69 -51
111 -103 152 -191 57 -119 61 -158 68 -654 7 -497 6 -495 67 -552 39 -36 128
-58 236 -58 l88 0 0 -219 0 -219 -122 -4 c-109 -3 -128 -6 -168 -28 -29 -17
-53 -41 -70 -70 l-25 -45 -6 -455 c-4 -389 -8 -466 -23 -530 -54 -227 -189
-363 -417 -421 -68 -17 -125 -22 -301 -26 l-218 -5 0 218 0 219 119 1 c168 1
234 31 274 123 7 17 13 171 17 431 6 336 10 415 24 465 40 144 115 233 245
296 94 45 93 58 -6 105 -124 59 -201 152 -238 286 -15 53 -19 128 -24 468 -7
446 -7 450 -73 505 -42 36 -90 47 -220 52 l-118 5 0 217 0 216 232 -6 c172 -4
249 -10 294 -22z m-5226 -807 l0 -300 -325 0 -325 0 0 300 0 300 325 0 325 0
0 -300z m830 0 l0 -300 -325 0 -325 0 0 300 0 300 325 0 325 0 0 -300z m900
-40 l0 -300 -325 0 -325 0 0 300 0 300 325 0 325 0 0 -300z m910 0 l0 -300
-325 0 -325 0 0 300 0 300 325 0 325 0 0 -300z m840 0 l0 -300 -325 0 -325 0
0 300 0 300 325 0 325 0 0 -300z m900 0 l0 -300 -325 0 -325 0 0 300 0 300
325 0 325 0 0 -300z m-4380 -830 l0 -300 -325 0 -325 0 0 300 0 300 325 0 325
0 0 -300z m830 0 c0 -193 -4 -300 -10 -300 -5 0 -147 0 -315 0 -168 0 -309 0
-315 0 -6 0 -10 107 -10 300 l0 300 325 0 325 0 0 -300z m900 0 l0 -300 -325
0 -325 0 0 300 0 300 325 0 325 0 0 -300z m910 -40 l0 -300 -325 0 -325 0 0
300 0 300 325 0 325 0 0 -300z m1740 0 l0 -300 -720 0 -720 0 0 300 0 300 720
0 720 0 0 -300z m-1000 -835 l0 -305 -1515 0 -1515 0 0 305 0 305 1515 0 1515
0 0 -305z m-3380 -5 l0 -300 -325 0 -325 0 0 300 0 300 325 0 325 0 0 -300z
m4380 -40 l0 -300 -325 0 -325 0 0 300 0 300 325 0 325 0 0 -300z m-6178
-2102 l3 -353 118 -3 117 -3 0 -114 0 -115 115 0 115 0 0 115 0 115 120 0 120
0 0 355 0 355 120 0 120 0 0 -355 0 -355 -120 0 -120 0 0 -121 0 -122 -120 7
-120 6 7 -120 6 -120 -121 0 -122 0 0 115 c0 85 -3 115 -12 115 -7 1 -44 2
-83 4 -38 2 -87 4 -107 5 l-38 1 0 115 0 115 -115 0 -115 0 0 355 0 355 115 0
115 0 2 -352z m1888 232 l0 -120 -115 0 -115 0 0 -350 0 -350 115 0 115 0 0
-120 0 -120 -355 0 -356 0 3 118 3 117 118 3 117 3 0 349 0 350 -92 2 c-51 1
-100 2 -108 4 -8 1 -21 2 -27 3 -10 1 -13 31 -13 116 l0 115 355 0 355 0 0
-120z m474 68 c3 -29 6 -135 6 -235 l0 -183 233 -2 232 -3 3 -117 3 -118 114
0 115 0 0 -115 0 -114 118 -3 117 -3 3 -117 3 -118 -121 0 -120 0 0 115 0 115
-42 1 c-24 1 -54 2 -68 4 -14 1 -46 3 -72 3 l-47 2 -3 113 -3 112 -232 3 -233
2 0 -235 0 -235 -120 0 -120 0 0 590 0 590 114 0 113 0 7 -52z m946 -69 l0
-121 -102 3 c-151 5 -138 -7 -138 125 l0 114 120 0 120 0 0 -121z m1418 4 l-3
-118 -400 -3 c-220 -2 -433 0 -472 3 l-73 7 0 114 0 114 475 0 476 0 -3 -117z
m472 -118 l0 -235 355 0 355 0 0 235 0 235 115 0 115 0 0 -590 0 -590 -115 0
-115 0 0 183 c0 100 -3 206 -6 235 l-7 52 -348 0 -349 0 0 -235 0 -235 -120 0
-120 0 0 590 0 590 120 0 120 0 0 -235z m2120 121 l0 -113 61 -7 c34 -3 88 -6
120 -6 l59 0 0 -470 0 -470 -120 0 -120 0 0 115 0 115 -325 1 c-179 1 -332 2
-340 2 -8 0 -19 -1 -25 -2 -6 -1 -10 -47 -10 -116 l0 -115 -120 0 -120 0 0
470 0 470 114 0 113 0 7 -52 c3 -29 6 -135 6 -235 l0 -183 350 0 350 0 0 235
0 235 -339 0 c-187 0 -346 3 -355 6 -13 5 -16 24 -16 104 0 54 3 105 6 114 5
14 46 16 355 16 l349 0 0 -114z m-4250 -241 l0 -115 -115 0 -115 0 0 115 0
115 115 0 115 0 0 -115z m710 0 l0 -115 355 0 355 0 0 -120 0 -120 120 0 121
0 -3 -117 -3 -118 -117 2 -118 3 0 -120 0 -120 -470 0 -470 0 0 120 0 120 470
0 470 0 0 115 0 115 -355 0 -355 0 0 120 0 120 -115 0 -115 0 0 115 0 115 115
0 115 0 0 -115z"/>
</g>
</svg>
